# Blender v2.79 (sub 0) OBJ File: 'Board.blend'
# www.blender.org
mtllib Board.mtl
o Table_Cube.001
v -15.382072 -0.077778 9.201751
v -15.382072 0.415758 9.201751
v -15.382072 -0.077778 -9.201751
v -15.382072 0.415758 -9.201751
v 15.382072 -0.077778 9.201751
v 15.382072 0.415758 9.201751
v 15.382072 -0.077778 -9.201751
v 15.382072 0.415758 -9.201751
v -18.959730 -0.077778 -8.451897
v -18.959730 -0.077778 8.451897
v -18.959730 0.415758 8.451897
v -18.959730 0.415758 -8.451897
v 18.959730 0.415758 -8.451897
v 18.959730 -0.077778 -8.451897
v 18.959730 -0.077778 8.451897
v 18.959730 0.415758 8.451897
v -21.696018 -0.077778 -6.544065
v -21.696018 -0.077778 6.544065
v -21.696018 0.415758 6.544065
v -21.696018 0.415758 -6.544065
v 21.696018 0.415758 -6.544065
v 21.696018 -0.077778 -6.544065
v 21.696018 -0.077778 6.544065
v 21.696018 0.415758 6.544065
v -23.629076 -0.077778 -3.636072
v -23.629076 -0.077778 3.636072
v -23.629076 0.415758 3.636072
v -23.629076 0.415758 -3.636072
v 23.629076 0.415758 -3.636072
v 23.629076 -0.077778 -3.636072
v 23.629076 -0.077778 3.636072
v 23.629076 0.415758 3.636072
v -24.366488 -0.077778 0.000000
v -24.366488 0.415758 0.000000
v 24.366488 0.415758 0.000000
v 24.366488 -0.077778 0.000000
vt 0.803409 0.893491
vt 0.804844 0.917649
vt 0.882074 0.877282
vt 0.877603 0.855200
vt 0.193659 0.894199
vt 0.192285 0.917650
vt 0.812289 0.889953
vt 0.812289 0.076797
vt 0.884624 0.109929
vt 0.884624 0.856821
vt 0.806341 0.093949
vt 0.807716 0.070499
vt 0.195156 0.070499
vt 0.196591 0.094657
vt 0.190284 0.889953
vt 0.190284 0.076797
vt 0.878414 0.135134
vt 0.934076 0.774871
vt 0.934008 0.216634
vt 0.882738 0.113671
vt 0.941472 0.199463
vt 0.117949 0.856821
vt 0.117949 0.109929
vt 0.122398 0.132948
vt 0.121586 0.853015
vt 0.117262 0.874477
vt 0.117926 0.110866
vt 0.065993 0.771515
vt 0.065924 0.213277
vt 0.025971 0.336752
vt 0.026189 0.647438
vt 0.062625 0.194226
vt 0.062625 0.772524
vt 0.023542 0.644034
vt 0.023542 0.322715
vt 0.058528 0.788686
vt 0.058288 0.196362
vt 0.939947 0.194226
vt 0.939947 0.772524
vt 0.941712 0.791787
vt 0.974029 0.651396
vt 0.983937 0.660542
vt 0.999908 0.495670
vt 0.989207 0.496045
vt 0.979031 0.644034
vt 0.979031 0.322715
vt 0.993940 0.483375
vt 0.973811 0.340711
vt 0.983583 0.330986
vt 0.016417 0.657163
vt 0.016063 0.327607
vt 0.008633 0.483375
vt 0.010793 0.492104
vt 0.000092 0.492479
vn 0.1031 0.0000 -0.9947
vn 0.3965 0.0000 -0.9180
vn -0.1031 0.0000 -0.9947
vn 0.0000 1.0000 0.0000
vn 0.1031 0.0000 0.9947
vn -0.1031 0.0000 0.9947
vn 0.0000 -1.0000 0.0000
vn 0.3965 0.0000 0.9180
vn 0.7149 0.0000 0.6992
vn -0.3965 0.0000 -0.9180
vn -0.3965 0.0000 0.9180
vn -0.7149 0.0000 -0.6992
vn -0.7149 0.0000 0.6992
vn 0.7149 0.0000 -0.6992
vn 0.9236 0.0000 -0.3833
vn 1.0000 0.0000 0.0000
vn 0.9236 0.0000 0.3833
vn -0.9236 0.0000 -0.3833
vn -0.9236 0.0000 0.3833
vn -1.0000 0.0000 0.0000
usemtl Table
s 1
f 7/1/1 8/2/1 13/3/2 14/4/2
f 3/5/3 4/6/3 8/2/1 7/1/1
f 8/7/4 6/8/4 16/9/4 13/10/4
f 5/11/5 6/12/5 2/13/6 1/14/6
f 3/5/7 7/1/7 5/11/7 1/14/7
f 8/7/4 4/15/4 2/16/4 6/8/4
f 15/17/7 14/4/7 22/18/7 23/19/7
f 16/20/8 15/17/8 23/19/9 24/21/9
f 2/16/4 4/15/4 12/22/4 11/23/4
f 3/5/7 1/14/7 10/24/7 9/25/7
f 6/12/5 5/11/5 15/17/8 16/20/8
f 5/11/7 7/1/7 14/4/7 15/17/7
f 4/6/3 3/5/3 9/25/10 12/26/10
f 1/14/6 2/13/6 11/27/11 10/24/11
f 17/28/7 18/29/7 26/30/7 25/31/7
f 19/32/4 20/33/4 28/34/4 27/35/4
f 12/26/10 9/25/10 17/28/12 20/36/12
f 10/24/11 11/27/11 19/37/13 18/29/13
f 13/10/4 16/9/4 24/38/4 21/39/4
f 14/4/2 13/3/2 21/40/14 22/18/14
f 11/23/4 12/22/4 20/33/4 19/32/4
f 9/25/7 10/24/7 18/29/7 17/28/7
f 30/41/15 29/42/15 35/43/16 36/44/16
f 29/45/4 32/46/4 35/47/4
f 24/21/9 23/19/9 31/48/17 32/49/17
f 23/19/7 22/18/7 30/41/7 31/48/7
f 20/36/12 17/28/12 25/31/18 28/50/18
f 18/29/13 19/37/13 27/51/19 26/30/19
f 21/39/4 24/38/4 32/46/4 29/45/4
f 22/18/14 21/40/14 29/42/15 30/41/15
f 27/35/4 28/34/4 34/52/4
f 25/31/7 26/30/7 33/53/7
f 32/49/17 31/48/17 36/44/16 35/43/16
f 31/48/7 30/41/7 36/44/7
f 28/50/18 25/31/18 33/53/20 34/54/20
f 26/30/19 27/51/19 34/54/20 33/53/20
