# Exported from Wings 3D 1.5.3
mtllib MnMPack.mtl
o Cube1
#60 vertices, 116 faces
v -2.14739680 -4.5991949e-3 -1.42730112
v -2.14739680 -4.5991949e-3 1.42730112
v -2.14739680 4.5991949e-3 -1.42730112
v -2.14739680 4.5991949e-3 1.42730112
v 2.14739680 -4.5991949e-3 -1.42730112
v 2.14739680 -4.5991949e-3 1.42730112
v 2.14739680 4.5991949e-3 -1.42730112
v 2.14739680 4.5991949e-3 1.42730112
v -1.33997560 -0.22326189 -1.42730112
v 1.33997560 -0.22326189 -1.42730112
v -1.33997560 -0.22326189 1.42730112
v 1.33997560 -0.22326189 1.42730112
v -1.33997560 0.22326189 -1.42730112
v 1.33997560 0.22326189 -1.42730112
v -1.33997560 0.22326189 1.42730112
v 1.33997560 0.22326189 1.42730112
v -1.33997560 -0.22326189 4.29871042
v 1.33997560 -0.22326189 4.29871042
v -1.33997560 0.22326189 4.29871042
v 1.33997560 0.22326189 4.29871042
v 2.14739680 -4.5991949e-3 4.29871042
v 2.14739680 4.5991949e-3 4.29871042
v -2.14739680 4.5991949e-3 4.29871042
v -2.14739680 -4.5991949e-3 4.29871042
v -1.33997560 -0.22326189 -4.29871042
v 1.33997560 -0.22326189 -4.29871042
v -1.33997560 0.22326189 -4.29871042
v 1.33997560 0.22326189 -4.29871042
v -2.14739680 -4.5991949e-3 -4.29871042
v -2.14739680 4.5991949e-3 -4.29871042
v 2.14739680 4.5991949e-3 -4.29871042
v 2.14739680 -4.5991949e-3 -4.29871042
v 0.0000000e+0 -0.29350008 -1.42730112
v 0.0000000e+0 -0.29350008 1.42730112
v 0.0000000e+0 0.29350008 -1.42730112
v 0.0000000e+0 0.29350008 1.42730112
v 0.0000000e+0 0.29350008 4.29871042
v 0.0000000e+0 -0.29350008 4.29871042
v 0.0000000e+0 -0.29350008 -4.29871042
v 0.0000000e+0 0.29350008 -4.29871042
v -1.33997560 -3.1823303e-3 4.96135332
v 1.33997560 -3.1823303e-3 4.96135332
v -1.33997560 3.1823303e-3 4.96135332
v 1.33997560 3.1823303e-3 4.96135332
v 0.0000000e+0 4.1834914e-3 4.96135332
v 0.0000000e+0 -4.1834914e-3 4.96135332
v 2.14739680 -6.5556004e-5 4.96135332
v 2.14739680 6.5556004e-5 4.96135332
v -2.14739680 6.5556004e-5 4.96135332
v -2.14739680 -6.5556004e-5 4.96135332
v -1.33997560 -3.1823303e-3 -4.96135332
v 1.33997560 -3.1823303e-3 -4.96135332
v -1.33997560 3.1823303e-3 -4.96135332
v 1.33997560 3.1823303e-3 -4.96135332
v 0.0000000e+0 -4.1834914e-3 -4.96135332
v 0.0000000e+0 4.1834914e-3 -4.96135332
v 2.14739680 6.5556004e-5 -4.96135332
v 2.14739680 -6.5556004e-5 -4.96135332
v -2.14739680 -6.5556004e-5 -4.96135332
v -2.14739680 6.5556004e-5 -4.96135332
vt 0.0000000e+0 0.82375909
vt 1.7587935e-7 0.82375869
vt 0.17705307 0.41134627
vt 0.17719640 0.41142310
vt 0.17827169 0.41187955
vt 0.17934697 0.41233599
vt 0.17949030 0.41241282
vt 0.35654320 4.0635229e-7
vt 0.35654337 0.0000000e+0
vt 0.36877949 1.4995211e-2
vt 0.37005181 6.3182712e-2
vt 0.37155260 0.26805047
vt 0.37326028 0.47147802
vt 0.37518547 0.67576423
vt 0.37590061 0.72322150
vt 0.42750192 1.3438322e-2
vt 0.42967144 6.3275491e-2
vt 0.43118692 0.26755274
vt 0.43284235 0.47094013
vt 0.43380350 0.72481090
vt 0.43465650 0.67502623
vt 0.52431985 1.0726645e-2
vt 0.52487739 6.2468370e-2
vt 0.52678533 0.26678773
vt 0.52840938 0.47015607
vt 0.52978673 0.67417883
vt 0.53006837 0.72572476
vt 0.62024308 6.1330557e-2
vt 0.62131030 1.1306947e-2
vt 0.62242563 0.26595054
vt 0.62401861 0.46947741
vt 0.62506226 0.67387849
vt 0.62643676 0.72378928
vt 0.67600370 0.72128652
vt 0.67754513 0.67310687
vt 0.67995625 6.0098476e-2
vt 0.68019014 0.46825070
vt 0.68028676 1.1597774e-2
vt 0.68211993 0.26541843
vt 0.68303399 0.26483585
vt 0.68365840 0.46913347
vt 0.68450121 0.72153028
vt 0.68461876 0.67383676
vt 0.68610014 6.0563586e-2
vt 0.68708033 1.3111050e-2
vt 0.73471652 0.72317136
vt 0.73716435 0.67334709
vt 0.73982075 0.46908148
vt 0.74261213 0.26570652
vt 0.74499119 1.1845075e-2
vt 0.74556612 6.1633731e-2
vt 0.83151778 0.72642375
vt 0.83236431 0.67468594
vt 0.83541339 0.47038043
vt 0.83817328 0.26702433
vt 0.84069014 6.3012450e-2
vt 0.84125966 1.1468889e-2
vt 0.92772215 0.67635638
vt 0.92850997 0.72638517
vt 0.93104753 0.47175178
vt 0.93377723 0.26823698
vt 0.93596250 6.3844919e-2
vt 0.93761575 1.3942589e-2
vt 0.98742751 0.67792196
vt 0.98748713 0.72642375
vt 0.99073793 0.47261729
vt 0.99341418 0.26891402
vt 0.99551783 6.4219282e-2
vt 0.99566667 1.6525854e-2
vn -0.79416623 -0.60770058 0.0000000e+0
vn -0.79416623 -0.60770058 0.0000000e+0
vn -0.79416623 0.60770058 0.0000000e+0
vn -0.79416623 0.60770058 0.0000000e+0
vn 0.79416623 -0.60770058 0.0000000e+0
vn 0.79416623 -0.60770058 0.0000000e+0
vn 0.79416623 0.60770058 0.0000000e+0
vn 0.79416623 0.60770058 0.0000000e+0
vn -0.15775915 -0.98747762 0.0000000e+0
vn 0.15775915 -0.98747762 0.0000000e+0
vn -0.15775915 -0.98747762 0.0000000e+0
vn 0.15775915 -0.98747762 0.0000000e+0
vn -0.15775915 0.98747762 0.0000000e+0
vn 0.15775915 0.98747762 0.0000000e+0
vn -0.15775915 0.98747762 0.0000000e+0
vn 0.15775915 0.98747762 0.0000000e+0
vn -0.12017044 -0.98389109 0.13235330
vn 0.12017044 -0.98389109 0.13235330
vn -0.15586452 0.97508746 0.15783125
vn 0.15586452 0.97508746 0.15783125
vn 0.87695968 -0.48056115 1.6439224e-3
vn 0.69904113 0.71274267 5.7787424e-2
vn -0.77754179 0.62677458 5.0817342e-2
vn -0.79416705 -0.60769595 2.0788301e-3
vn -0.15586452 -0.97508746 -0.15783125
vn 0.15586452 -0.97508746 -0.15783125
vn -0.12017044 0.98389109 -0.13235330
vn 0.12017044 0.98389109 -0.13235330
vn -0.77754179 -0.62677458 -5.0817342e-2
vn -0.79416705 0.60769595 -2.0788301e-3
vn 0.87695968 0.48056115 -1.6439224e-3
vn 0.69904113 -0.71274267 -5.7787424e-2
vn 0.0000000e+0 -1.00000000 0.0000000e+0
vn 0.0000000e+0 -1.00000000 0.0000000e+0
vn 0.0000000e+0 1.00000000 0.0000000e+0
vn 0.0000000e+0 1.00000000 0.0000000e+0
vn 0.0000000e+0 0.98328957 0.18204839
vn 0.0000000e+0 -0.97888667 0.20440373
vn 3.1748682e-19 -0.98328957 -0.18204839
vn 0.0000000e+0 0.97888667 -0.20440373
vn -1.0673269e-3 -0.46332013 0.88619034
vn 1.0673269e-3 -0.46332013 0.88619034
vn -5.4781248e-2 0.68369007 0.72771348
vn 5.4781248e-2 0.68369007 0.72771348
vn 0.0000000e+0 0.54766124 0.83670017
vn 0.0000000e+0 -0.56610734 0.82433153
vn 0.47774458 -0.72290230 0.49917168
vn 0.66637051 0.33253318 0.66736199
vn -0.40863111 0.40704728 0.81690460
vn -0.69762115 -0.58956886 0.40710353
vn -4.8126748e-2 -0.60063946 -0.79807021
vn 4.8126748e-2 -0.60063946 -0.79807021
vn -1.3479809e-3 0.58515032 -0.81092373
vn 1.3479809e-3 0.58515032 -0.81092373
vn 0.0000000e+0 -0.54766124 -0.83670017
vn -5.1026431e-19 0.56610734 -0.82433153
vn 0.38754821 0.58642108 -0.71127821
vn 0.81609422 -0.40724852 -0.41004738
vn -0.57752239 -0.57528395 -0.57923765
vn -0.60139100 0.50824349 -0.61645553
g Cube1_Cube1_auv
usemtl Cube1_auv
s 1
f 1/66/1 9/60/9 2/67/2
f 1/66/1 29/64/29 9/60/9
f 2/5/2 3/5/3 1/5/1
f 2/67/2 9/60/9 11/61/11
f 2/67/2 17/62/17 24/68/24
f 2/5/2 23/5/23 4/5/4
f 3/13/3 15/18/15 13/19/13
f 3/13/3 27/21/27 30/14/30
f 3/5/3 29/4/29 1/5/1
f 4/5/4 3/5/3 2/5/2
f 4/12/4 15/18/15 3/13/3
f 4/12/4 23/11/23 15/18/15
f 5/5/5 7/5/7 6/5/6
f 5/5/5 32/5/32 7/5/7
f 6/5/6 7/5/7 8/5/8
f 6/40/6 10/48/10 5/37/5
f 6/40/6 18/51/18 12/49/12
f 6/5/6 22/5/22 21/6/21
f 7/41/7 16/30/16 8/39/8
f 7/41/7 28/32/28 14/31/14
f 7/5/7 32/5/32 31/5/31
f 8/5/8 22/5/22 6/5/6
f 9/60/9 29/64/29 25/58/25
f 9/60/9 39/53/39 33/54/33
f 10/48/10 32/35/32 5/37/5
f 10/48/10 34/55/34 33/54/33
f 10/48/10 39/53/39 26/47/26
f 11/61/11 9/60/9 34/55/34
f 11/61/11 17/62/17 2/67/2
f 12/49/12 10/48/10 6/40/6
f 12/49/12 34/55/34 10/48/10
f 13/19/13 15/18/15 35/25/35
f 13/19/13 27/21/27 3/13/3
f 14/31/14 16/30/16 7/41/7
f 14/31/14 35/25/35 16/30/16
f 15/18/15 23/11/23 19/17/19
f 15/18/15 37/23/37 36/24/36
f 16/30/16 22/36/22 8/39/8
f 16/30/16 35/25/35 36/24/36
f 16/30/16 37/23/37 20/28/20
f 17/62/17 34/55/34 38/56/38
f 17/62/17 46/57/46 41/63/41
f 17/62/17 50/69/50 24/68/24
f 18/51/18 34/55/34 12/49/12
f 18/51/18 46/57/46 38/56/38
f 18/51/18 47/45/47 42/50/42
f 19/17/19 23/11/23 43/16/43
f 19/17/19 37/23/37 15/18/15
f 20/28/20 22/36/22 16/30/16
f 20/28/20 37/23/37 44/29/44
f 21/44/21 18/51/18 6/40/6
f 21/44/21 47/45/47 18/51/18
f 21/6/21 48/8/48 47/9/47
f 22/36/22 44/29/44 48/38/48
f 22/5/22 48/8/48 21/6/21
f 23/5/23 50/5/50 49/5/49
f 24/5/24 23/5/23 2/5/2
f 24/5/24 50/5/50 23/5/23
f 25/58/25 29/64/29 51/59/51
f 25/58/25 39/53/39 9/60/9
f 26/47/26 32/35/32 10/48/10
f 26/47/26 39/53/39 52/46/52
f 27/21/27 35/25/35 40/26/40
f 27/21/27 56/27/56 53/20/53
f 27/21/27 60/15/60 30/14/30
f 28/32/28 35/25/35 14/31/14
f 28/32/28 56/27/56 40/26/40
f 28/32/28 57/42/57 54/33/54
f 29/4/29 60/2/60 59/1/59
f 30/5/30 29/4/29 3/5/3
f 30/5/30 60/2/60 29/4/29
f 31/43/31 28/32/28 7/41/7
f 31/43/31 57/42/57 28/32/28
f 31/5/31 58/5/58 57/5/57
f 32/35/32 52/46/52 58/34/58
f 32/5/32 58/5/58 31/5/31
f 33/54/33 34/55/34 9/60/9
f 33/54/33 39/53/39 10/48/10
f 34/55/34 17/62/17 11/61/11
f 35/25/35 27/21/27 13/19/13
f 36/24/36 35/25/35 15/18/15
f 36/24/36 37/23/37 16/30/16
f 37/23/37 43/16/43 45/22/45
f 38/56/38 34/55/34 18/51/18
f 38/56/38 46/57/46 17/62/17
f 39/53/39 51/59/51 55/52/55
f 40/26/40 35/25/35 28/32/28
f 40/26/40 56/27/56 27/21/27
f 41/5/41 46/5/46 43/5/43
f 41/63/41 50/69/50 17/62/17
f 42/50/42 46/57/46 18/51/18
f 42/3/42 48/8/48 44/5/44
f 43/16/43 37/23/37 19/17/19
f 43/5/43 49/5/49 41/5/41
f 44/29/44 22/36/22 20/28/20
f 44/5/44 46/5/46 42/3/42
f 45/5/45 43/5/43 46/5/46
f 45/22/45 44/29/44 37/23/37
f 46/5/46 44/5/44 45/5/45
f 47/9/47 48/8/48 42/3/42
f 49/10/49 43/16/43 23/11/23
f 50/5/50 41/5/41 49/5/49
f 51/59/51 39/53/39 25/58/25
f 51/7/51 60/2/60 53/5/53
f 52/46/52 32/35/32 26/47/26
f 52/5/52 56/5/56 54/5/54
f 53/5/53 56/5/56 51/7/51
f 53/20/53 60/15/60 27/21/27
f 54/33/54 56/27/56 28/32/28
f 54/5/54 57/5/57 52/5/52
f 55/5/55 51/7/51 56/5/56
f 55/52/55 52/46/52 39/53/39
f 56/5/56 52/5/52 55/5/55
f 58/5/58 52/5/52 57/5/57
f 59/65/59 51/59/51 29/64/29
f 59/1/59 60/2/60 51/7/51